<svg xmlns="http://www.w3.org/2000/svg" viewBox="0 0 64 64">
  <!-- Measuring cup / Verre doseur -->
  <path d="M12 8 L12 48 Q12 56 24 56 L40 56 Q52 56 52 48 L52 8 L48 8 L48 48 Q48 52 40 52 L24 52 Q16 52 16 48 L16 8 Z"
        fill="none" stroke="#C96A42" stroke-width="4" stroke-linecap="round" stroke-linejoin="round"/>

  <!-- Handle / Anse -->
  <path d="M52 16 L56 16 Q60 16 60 24 L60 32 Q60 40 56 40 L52 40"
        fill="none" stroke="#C96A42" stroke-width="4" stroke-linecap="round" stroke-linejoin="round"/>

  <!-- Spout / Bec verseur -->
  <path d="M12 8 L6 14"
        fill="none" stroke="#C96A42" stroke-width="4" stroke-linecap="round" stroke-linejoin="round"/>

  <!-- Arrow up / Flèche -->
  <path d="M32 44 L32 20 M24 28 L32 20 L40 28"
        fill="none" stroke="#C96A42" stroke-width="4" stroke-linecap="round" stroke-linejoin="round"/>
</svg>
